<svg xmlns="http://www.w3.org/2000/svg" width="24" height="24" fill="none" viewBox="0 0 24 24">
    <path fill="#fff" d="M0 0H1440V1024H0z" transform="translate(-227 -635)"/>
    <path fill="#fff" stroke="#FF7B49" stroke-width="2" d="M-31 11c0-16.016 12.984-29 29-29h990c16.02 0 29 12.984 29 29s-12.98 29-29 29H-2c-16.016 0-29-12.984-29-29z"/>
    <path fill="#FF7B49" d="M11.171 9.548l-.06-1.668h1.776l-.06 1.668-.252 4.428h-1.152l-.252-4.428zm.828 7.62c-.312 0-.572-.108-.78-.324-.208-.224-.312-.5-.312-.828 0-.328.104-.6.312-.816.208-.224.468-.336.78-.336s.572.112.78.336c.216.216.324.488.324.816 0 .328-.108.604-.324.828-.208.216-.468.324-.78.324z"/>
    <circle cx="12" cy="12" r="8" stroke="#FF7B49" stroke-width="2"/>
</svg>
