<svg xmlns="http://www.w3.org/2000/svg" width="24" height="24" fill="none" viewBox="0 0 24 24">
    <path fill="#97CAAC" fill-rule="evenodd" d="M15.887 4.865C12.838 1.808 7.9 1.806 4.854 4.861c-3.045 3.054-3.043 8.006.005 11.063 2.755 2.764 7.058 3.03 10.108.797l3.668 4.296.009-.008.02.02c.654.66 1.71.663 2.36.009.65-.655.646-1.72-.009-2.38-.083-.084-.172-.156-.266-.219l-4.052-3.459c2.21-3.058 1.94-7.357-.81-10.115zM14.304 6.44c-2.179-2.18-5.707-2.18-7.883-.003-2.177 2.177-2.174 5.706.003 7.885 2.177 2.178 5.706 2.179 7.882.002 2.176-2.176 2.176-5.705-.002-7.884z" clip-rule="evenodd"/>
</svg>
