<svg xmlns="http://www.w3.org/2000/svg" width="310" height="55" fill="none" viewBox="0 0 310 55">
    <path fill="#222" d="M23.369 9.98V26h-3.57v-2.07c-.62.76-1.39 1.33-2.31 1.71-.9.38-1.9.57-3 .57-1.56 0-2.96-.34-4.2-1.02-1.22-.68-2.18-1.64-2.88-2.88-.68-1.24-1.02-2.68-1.02-4.32 0-1.64.34-3.07 1.02-4.29.7-1.24 1.66-2.2 2.88-2.88 1.24-.68 2.64-1.02 4.2-1.02 1.04 0 1.99.18 2.85.54.88.36 1.64.89 2.28 1.59V9.98h3.75zM14.909 23c1.38 0 2.52-.46 3.42-1.38.9-.92 1.35-2.13 1.35-3.63s-.45-2.71-1.35-3.63c-.9-.92-2.04-1.38-3.42-1.38s-2.52.46-3.42 1.38c-.88.92-1.32 2.13-1.32 3.63s.44 2.71 1.32 3.63c.9.92 2.04 1.38 3.42 1.38zM43.275 9.98L36.405 26h-3.87l-6.87-16.02h3.9l4.98 11.88 5.13-11.88h3.6zm9.105 16.23c-1.62 0-3.08-.35-4.38-1.05-1.3-.7-2.32-1.67-3.06-2.91-.72-1.26-1.08-2.68-1.08-4.26 0-1.58.36-2.99 1.08-4.23.74-1.24 1.76-2.21 3.06-2.91 1.3-.7 2.76-1.05 4.38-1.05 1.64 0 3.11.35 4.41 1.05 1.3.7 2.31 1.67 3.03 2.91.74 1.24 1.11 2.65 1.11 4.23 0 1.58-.37 3-1.11 4.26-.72 1.24-1.73 2.21-3.03 2.91-1.3.7-2.77 1.05-4.41 1.05zm0-3.21c1.38 0 2.52-.46 3.42-1.38.9-.92 1.35-2.13 1.35-3.63s-.45-2.71-1.35-3.63c-.9-.92-2.04-1.38-3.42-1.38s-2.52.46-3.42 1.38c-.88.92-1.32 2.13-1.32 3.63s.44 2.71 1.32 3.63c.9.92 2.04 1.38 3.42 1.38zm19.486 3.21c-1.66 0-3.15-.35-4.47-1.05-1.32-.7-2.35-1.67-3.09-2.91-.74-1.26-1.11-2.68-1.11-4.26 0-1.58.37-2.99 1.11-4.23.74-1.24 1.76-2.21 3.06-2.91 1.32-.7 2.82-1.05 4.5-1.05 1.58 0 2.96.32 4.14.96 1.2.64 2.1 1.56 2.7 2.76l-2.88 1.68c-.46-.74-1.04-1.29-1.74-1.65-.68-.38-1.43-.57-2.25-.57-1.4 0-2.56.46-3.48 1.38-.92.9-1.38 2.11-1.38 3.63s.45 2.74 1.35 3.66c.92.9 2.09 1.35 3.51 1.35.82 0 1.57-.18 2.25-.54.7-.38 1.28-.94 1.74-1.68l2.88 1.68c-.62 1.2-1.53 2.13-2.73 2.79-1.18.64-2.55.96-4.11.96zM97.373 9.98V26h-3.57v-2.07c-.62.76-1.39 1.33-2.31 1.71-.9.38-1.9.57-3 .57-1.56 0-2.96-.34-4.2-1.02-1.22-.68-2.18-1.64-2.88-2.88-.68-1.24-1.02-2.68-1.02-4.32 0-1.64.34-3.07 1.02-4.29.7-1.24 1.66-2.2 2.88-2.88 1.24-.68 2.64-1.02 4.2-1.02 1.04 0 1.99.18 2.85.54.88.36 1.64.89 2.28 1.59V9.98h3.75zM88.913 23c1.38 0 2.52-.46 3.42-1.38.9-.92 1.35-2.13 1.35-3.63s-.45-2.71-1.35-3.63c-.9-.92-2.04-1.38-3.42-1.38s-2.52.46-3.42 1.38c-.88.92-1.32 2.13-1.32 3.63s.44 2.71 1.32 3.63c.9.92 2.04 1.38 3.42 1.38zm29.056-19.26V26h-3.6v-2.07c-.62.76-1.39 1.33-2.31 1.71-.9.38-1.9.57-3 .57-1.54 0-2.93-.34-4.17-1.02-1.22-.68-2.18-1.64-2.88-2.88-.7-1.26-1.05-2.7-1.05-4.32s.35-3.05 1.05-4.29c.7-1.24 1.66-2.2 2.88-2.88 1.24-.68 2.63-1.02 4.17-1.02 1.06 0 2.03.18 2.91.54.88.36 1.63.9 2.25 1.62V3.74h3.75zM109.509 23c.9 0 1.71-.2 2.43-.6.72-.42 1.29-1.01 1.71-1.77.42-.76.63-1.64.63-2.64 0-1-.21-1.88-.63-2.64-.42-.76-.99-1.34-1.71-1.74-.72-.42-1.53-.63-2.43-.63-.9 0-1.71.21-2.43.63-.72.4-1.29.98-1.71 1.74-.42.76-.63 1.64-.63 2.64 0 1 .21 1.88.63 2.64.42.76.99 1.35 1.71 1.77.72.4 1.53.6 2.43.6zm20.566 3.21c-1.62 0-3.08-.35-4.38-1.05-1.3-.7-2.32-1.67-3.06-2.91-.72-1.26-1.08-2.68-1.08-4.26 0-1.58.36-2.99 1.08-4.23.74-1.24 1.76-2.21 3.06-2.91 1.3-.7 2.76-1.05 4.38-1.05 1.64 0 3.11.35 4.41 1.05 1.3.7 2.31 1.67 3.03 2.91.74 1.24 1.11 2.65 1.11 4.23 0 1.58-.37 3-1.11 4.26-.72 1.24-1.73 2.21-3.03 2.91-1.3.7-2.77 1.05-4.41 1.05zm0-3.21c1.38 0 2.52-.46 3.42-1.38.9-.92 1.35-2.13 1.35-3.63s-.45-2.71-1.35-3.63c-.9-.92-2.04-1.38-3.42-1.38s-2.52.46-3.42 1.38c-.88.92-1.32 2.13-1.32 3.63s.44 2.71 1.32 3.63c.9.92 2.04 1.38 3.42 1.38zM10.66 37.04c-1.053 0-1.58.573-1.58 1.72v.64h2.94v2H9.14V50h-2.5V38.72c0-1.133.333-2.033 1-2.7.667-.667 1.613-1 2.84-1 .947 0 1.693.193 2.24.58l-.7 1.88c-.4-.293-.853-.44-1.36-.44zm7.674 13.1c-1.08 0-2.053-.233-2.92-.7-.866-.467-1.546-1.113-2.04-1.94-.48-.84-.72-1.787-.72-2.84s.24-1.993.72-2.82c.494-.827 1.174-1.473 2.04-1.94.867-.467 1.84-.7 2.92-.7 1.094 0 2.074.233 2.94.7.867.467 1.54 1.113 2.02 1.94.494.827.74 1.767.74 2.82s-.246 2-.74 2.84c-.48.827-1.153 1.473-2.02 1.94-.866.467-1.846.7-2.94.7zm0-2.14c.92 0 1.68-.307 2.28-.92.6-.613.9-1.42.9-2.42s-.3-1.807-.9-2.42c-.6-.613-1.36-.92-2.28-.92-.92 0-1.68.307-2.28.92-.586.613-.88 1.42-.88 2.42s.294 1.807.88 2.42c.6.613 1.36.92 2.28.92zm10.471-7.12c.72-1.12 1.987-1.68 3.8-1.68v2.38c-.213-.04-.406-.06-.58-.06-.973 0-1.733.287-2.28.86-.547.56-.82 1.373-.82 2.44V50h-2.5V39.32h2.38v1.56zm21.986-1.56V50h-2.38v-1.38c-.413.507-.927.887-1.54 1.14-.6.253-1.267.38-2 .38-1.04 0-1.973-.227-2.8-.68-.813-.453-1.453-1.093-1.92-1.92-.453-.827-.68-1.787-.68-2.88s.227-2.047.68-2.86c.467-.827 1.107-1.467 1.92-1.92.827-.453 1.76-.68 2.8-.68.693 0 1.327.12 1.9.36.587.24 1.093.593 1.52 1.06v-1.3h2.5zM45.15 48c.92 0 1.68-.307 2.28-.92.6-.613.9-1.42.9-2.42s-.3-1.807-.9-2.42c-.6-.613-1.36-.92-2.28-.92-.92 0-1.68.307-2.28.92-.587.613-.88 1.42-.88 2.42s.293 1.807.88 2.42c.6.613 1.36.92 2.28.92zm17.738 2.14c-.866 0-1.713-.113-2.54-.34-.826-.227-1.486-.513-1.98-.86l.96-1.9c.48.32 1.054.58 1.72.78.68.187 1.347.28 2 .28 1.494 0 2.24-.393 2.24-1.18 0-.373-.193-.633-.58-.78-.373-.147-.98-.287-1.82-.42-.88-.133-1.6-.287-2.16-.46-.546-.173-1.026-.473-1.44-.9-.4-.44-.6-1.047-.6-1.82 0-1.013.42-1.82 1.26-2.42.854-.613 2-.92 3.44-.92.734 0 1.467.087 2.2.26.734.16 1.334.38 1.8.66l-.96 1.9c-.906-.533-1.926-.8-3.06-.8-.733 0-1.293.113-1.68.34-.373.213-.56.5-.56.86 0 .4.2.687.6.86.414.16 1.047.313 1.9.46.854.133 1.554.287 2.1.46.547.173 1.014.467 1.4.88.4.413.6 1 .6 1.76 0 1-.433 1.8-1.3 2.4-.866.6-2.046.9-3.54.9zM83.362 39.2c1.347 0 2.413.393 3.2 1.18.787.773 1.18 1.94 1.18 3.5V50h-2.5v-5.8c0-.933-.207-1.633-.62-2.1-.413-.48-1.007-.72-1.78-.72-.84 0-1.513.28-2.02.84-.507.547-.76 1.333-.76 2.36V50h-2.5v-5.8c0-.933-.206-1.633-.62-2.1-.413-.48-1.006-.72-1.78-.72-.853 0-1.533.273-2.04.82-.493.547-.74 1.34-.74 2.38V50h-2.5V39.32h2.38v1.36c.4-.48.9-.847 1.5-1.1.6-.253 1.267-.38 2-.38.8 0 1.507.153 2.12.46.627.293 1.12.733 1.48 1.32.44-.56 1.007-.993 1.7-1.3.694-.32 1.46-.48 2.3-.48zm18.113.12V50h-2.38v-1.38c-.414.507-.927.887-1.54 1.14-.6.253-1.267.38-2 .38-1.04 0-1.974-.227-2.8-.68-.814-.453-1.454-1.093-1.92-1.92-.454-.827-.68-1.787-.68-2.88s.226-2.047.68-2.86c.466-.827 1.106-1.467 1.92-1.92.826-.453 1.76-.68 2.8-.68.693 0 1.326.12 1.9.36.586.24 1.093.593 1.52 1.06v-1.3h2.5zM95.835 48c.92 0 1.68-.307 2.28-.92.6-.613.9-1.42.9-2.42s-.3-1.807-.9-2.42c-.6-.613-1.36-.92-2.28-.92-.92 0-1.68.307-2.28.92-.587.613-.88 1.42-.88 2.42s.293 1.807.88 2.42c.6.613 1.36.92 2.28.92zm11.29-7.12c.72-1.12 1.987-1.68 3.8-1.68v2.38c-.213-.04-.406-.06-.58-.06-.973 0-1.733.287-2.28.86-.546.56-.82 1.373-.82 2.44V50h-2.5V39.32h2.38v1.56zm11.921 8.54c-.293.24-.653.42-1.08.54-.413.12-.853.18-1.32.18-1.173 0-2.08-.307-2.72-.92-.64-.613-.96-1.507-.96-2.68v-9.58h2.5v2.44h2.86v2h-2.86v5.08c0 .52.127.92.38 1.2.267.267.634.4 1.1.4.56 0 1.027-.147 1.4-.44l.7 1.78zm6.795-1.4c1.16 0 2.127-.387 2.9-1.16l1.32 1.54c-.467.573-1.067 1.007-1.8 1.3-.733.293-1.56.44-2.48.44-1.173 0-2.207-.233-3.1-.7-.893-.467-1.587-1.113-2.08-1.94-.48-.84-.72-1.787-.72-2.84 0-1.04.233-1.973.7-2.8.48-.84 1.133-1.493 1.96-1.96.84-.467 1.787-.7 2.84-.7 1 0 1.907.22 2.72.66.827.427 1.48 1.047 1.96 1.86.48.8.72 1.74.72 2.82l-8.18 1.6c.253.613.66 1.08 1.22 1.4.56.32 1.233.48 2.02.48zm-.46-6.82c-.92 0-1.667.3-2.24.9-.56.6-.84 1.407-.84 2.42v.02l6.04-1.16c-.173-.653-.527-1.18-1.06-1.58-.52-.4-1.153-.6-1.9-.6zm10.182-.32c.72-1.12 1.987-1.68 3.8-1.68v2.38c-.213-.04-.407-.06-.58-.06-.973 0-1.733.287-2.28.86-.547.56-.82 1.373-.82 2.44V50h-2.5V39.32h2.38v1.56zm21.546-1.56L152.529 50h-2.58l-4.58-10.68h2.6l3.32 7.92 3.42-7.92h2.4zm6.349 8.7c1.16 0 2.127-.387 2.9-1.16l1.32 1.54c-.466.573-1.066 1.007-1.8 1.3-.733.293-1.56.44-2.48.44-1.173 0-2.206-.233-3.1-.7-.893-.467-1.586-1.113-2.08-1.94-.48-.84-.72-1.787-.72-2.84 0-1.04.234-1.973.7-2.8.48-.84 1.134-1.493 1.96-1.96.84-.467 1.787-.7 2.84-.7 1 0 1.907.22 2.72.66.827.427 1.48 1.047 1.96 1.86.48.8.72 1.74.72 2.82l-8.18 1.6c.254.613.66 1.08 1.22 1.4.56.32 1.234.48 2.02.48zm-.46-6.82c-.92 0-1.666.3-2.24.9-.56.6-.84 1.407-.84 2.42v.02l6.04-1.16c-.173-.653-.526-1.18-1.06-1.58-.52-.4-1.153-.6-1.9-.6zm18.402-1.88v9.06c0 3.76-1.92 5.64-5.76 5.64-1.027 0-2-.133-2.92-.4-.92-.253-1.68-.627-2.28-1.12l1.12-1.88c.467.387 1.053.693 1.76.92.72.24 1.447.36 2.18.36 1.173 0 2.033-.267 2.58-.8.547-.533.82-1.347.82-2.44v-.56c-.427.467-.947.82-1.56 1.06-.613.24-1.287.36-2.02.36-1.013 0-1.933-.213-2.76-.64-.813-.44-1.46-1.053-1.94-1.84-.467-.787-.7-1.687-.7-2.7 0-1.013.233-1.907.7-2.68.48-.787 1.127-1.393 1.94-1.82.827-.427 1.747-.64 2.76-.64.773 0 1.473.127 2.1.38.64.253 1.173.64 1.6 1.16v-1.42h2.38zm-5.7 8.08c.947 0 1.72-.28 2.32-.84.613-.573.92-1.313.92-2.22 0-.893-.307-1.62-.92-2.18-.6-.56-1.373-.84-2.32-.84-.96 0-1.747.28-2.36.84-.6.56-.9 1.287-.9 2.18 0 .907.3 1.647.9 2.22.613.56 1.4.84 2.36.84zm19.587-8.08v9.06c0 3.76-1.92 5.64-5.76 5.64-1.027 0-2-.133-2.92-.4-.92-.253-1.68-.627-2.28-1.12l1.12-1.88c.467.387 1.053.693 1.76.92.72.24 1.447.36 2.18.36 1.173 0 2.033-.267 2.58-.8.547-.533.82-1.347.82-2.44v-.56c-.427.467-.947.82-1.56 1.06-.613.24-1.287.36-2.02.36-1.013 0-1.933-.213-2.76-.64-.813-.44-1.46-1.053-1.94-1.84-.467-.787-.7-1.687-.7-2.7 0-1.013.233-1.907.7-2.68.48-.787 1.127-1.393 1.94-1.82.827-.427 1.747-.64 2.76-.64.773 0 1.473.127 2.1.38.64.253 1.173.64 1.6 1.16v-1.42h2.38zm-5.7 8.08c.947 0 1.72-.28 2.32-.84.613-.573.92-1.313.92-2.22 0-.893-.307-1.62-.92-2.18-.6-.56-1.373-.84-2.32-.84-.96 0-1.747.28-2.36.84-.6.56-.9 1.287-.9 2.18 0 .907.3 1.647.9 2.22.613.56 1.4.84 2.36.84zm8.987-8.08h2.5V50h-2.5V39.32zm1.26-1.76c-.454 0-.834-.14-1.14-.42-.307-.293-.46-.653-.46-1.08 0-.427.153-.78.46-1.06.306-.293.686-.44 1.14-.44.453 0 .833.14 1.14.42.306.267.46.607.46 1.02 0 .44-.154.813-.46 1.12-.294.293-.674.44-1.14.44zm9.601 10.46c1.16 0 2.127-.387 2.9-1.16l1.32 1.54c-.467.573-1.067 1.007-1.8 1.3-.733.293-1.56.44-2.48.44-1.173 0-2.207-.233-3.1-.7-.893-.467-1.587-1.113-2.08-1.94-.48-.84-.72-1.787-.72-2.84 0-1.04.233-1.973.7-2.8.48-.84 1.133-1.493 1.96-1.96.84-.467 1.787-.7 2.84-.7 1 0 1.907.22 2.72.66.827.427 1.48 1.047 1.96 1.86.48.8.72 1.74.72 2.82l-8.18 1.6c.253.613.66 1.08 1.22 1.4.56.32 1.233.48 2.02.48zm-.46-6.82c-.92 0-1.667.3-2.24.9-.56.6-.84 1.407-.84 2.42v.02l6.04-1.16c-.173-.653-.527-1.18-1.06-1.58-.52-.4-1.153-.6-1.9-.6zm16.849 8.94c-1.107 0-1.973-.3-2.6-.9-.613-.613-.92-1.473-.92-2.58v-11.5h2.5v11.32c0 1.067.5 1.6 1.5 1.6.333 0 .633-.067.9-.2l.12 2c-.467.173-.967.26-1.5.26zm3.199-10.82h2.5V50h-2.5V39.32zm1.26-1.76c-.454 0-.834-.14-1.14-.42-.307-.293-.46-.653-.46-1.08 0-.427.153-.78.46-1.06.306-.293.686-.44 1.14-.44.453 0 .833.14 1.14.42.306.267.46.607.46 1.02 0 .44-.154.813-.46 1.12-.294.293-.674.44-1.14.44zm8.541-.52c-1.053 0-1.58.573-1.58 1.72v.64h2.94v2h-2.88V50h-2.5V38.72c0-1.133.333-2.033 1-2.7.667-.667 1.613-1 2.84-1 .947 0 1.693.193 2.24.58l-.7 1.88c-.4-.293-.853-.44-1.36-.44zm7.955 10.98c1.16 0 2.126-.387 2.9-1.16l1.32 1.54c-.467.573-1.067 1.007-1.8 1.3-.734.293-1.56.44-2.48.44-1.174 0-2.207-.233-3.1-.7-.894-.467-1.587-1.113-2.08-1.94-.48-.84-.72-1.787-.72-2.84 0-1.04.233-1.973.7-2.8.48-.84 1.133-1.493 1.96-1.96.84-.467 1.786-.7 2.84-.7 1 0 1.906.22 2.72.66.826.427 1.48 1.047 1.96 1.86.48.8.72 1.74.72 2.82l-8.18 1.6c.253.613.66 1.08 1.22 1.4.56.32 1.233.48 2.02.48zm-.46-6.82c-.92 0-1.667.3-2.24.9-.56.6-.84 1.407-.84 2.42v.02l6.04-1.16c-.174-.653-.527-1.18-1.06-1.58-.52-.4-1.154-.6-1.9-.6zm11.101 8.94c-.866 0-1.713-.113-2.54-.34-.826-.227-1.486-.513-1.98-.86l.96-1.9c.48.32 1.054.58 1.72.78.68.187 1.347.28 2 .28 1.494 0 2.24-.393 2.24-1.18 0-.373-.193-.633-.58-.78-.373-.147-.98-.287-1.82-.42-.88-.133-1.6-.287-2.16-.46-.546-.173-1.026-.473-1.44-.9-.4-.44-.6-1.047-.6-1.82 0-1.013.42-1.82 1.26-2.42.854-.613 2-.92 3.44-.92.734 0 1.467.087 2.2.26.734.16 1.334.38 1.8.66l-.96 1.9c-.906-.533-1.926-.8-3.06-.8-.733 0-1.293.113-1.68.34-.373.213-.56.5-.56.86 0 .4.2.687.6.86.414.16 1.047.313 1.9.46.854.133 1.554.287 2.1.46.547.173 1.014.467 1.4.88.4.413.6 1 .6 1.76 0 1-.433 1.8-1.3 2.4-.866.6-2.046.9-3.54.9zm12.993-.72c-.293.24-.653.42-1.08.54-.413.12-.853.18-1.32.18-1.173 0-2.08-.307-2.72-.92-.64-.613-.96-1.507-.96-2.68v-9.58h2.5v2.44h2.86v2h-2.86v5.08c0 .52.127.92.38 1.2.267.267.634.4 1.1.4.56 0 1.027-.147 1.4-.44l.7 1.78zm12.407-10.1v9.06c0 3.76-1.847 5.64-5.54 5.64-.973 0-1.907-.133-2.8-.4-.88-.253-1.607-.627-2.18-1.12l1.12-1.88c.453.387 1.007.693 1.66.92.653.227 1.34.34 2.06.34 1.093 0 1.893-.267 2.4-.8.52-.52.78-1.327.78-2.42v-.5c-.4.44-.887.78-1.46 1.02-.573.227-1.193.34-1.86.34-1.427 0-2.553-.393-3.38-1.18-.813-.787-1.22-1.967-1.22-3.54v-5.48h2.5v5.16c0 .947.213 1.66.64 2.14.44.467 1.06.7 1.86.7.893 0 1.6-.273 2.12-.82.533-.547.8-1.34.8-2.38v-4.8h2.5zm6.793 10.82c-1.107 0-1.973-.3-2.6-.9-.613-.613-.92-1.473-.92-2.58v-11.5h2.5v11.32c0 1.067.5 1.6 1.5 1.6.333 0 .633-.067.9-.2l.12 2c-.467.173-.967.26-1.5.26zm8.084-2.12c1.16 0 2.126-.387 2.9-1.16l1.32 1.54c-.467.573-1.067 1.007-1.8 1.3-.734.293-1.56.44-2.48.44-1.174 0-2.207-.233-3.1-.7-.894-.467-1.587-1.113-2.08-1.94-.48-.84-.72-1.787-.72-2.84 0-1.04.233-1.973.7-2.8.48-.84 1.133-1.493 1.96-1.96.84-.467 1.786-.7 2.84-.7 1 0 1.906.22 2.72.66.826.427 1.48 1.047 1.96 1.86.48.8.72 1.74.72 2.82l-8.18 1.6c.253.613.66 1.08 1.22 1.4.56.32 1.233.48 2.02.48zm-.46-6.82c-.92 0-1.667.3-2.24.9-.56.6-.84 1.407-.84 2.42v.02l6.04-1.16c-.174-.653-.527-1.18-1.06-1.58-.52-.4-1.154-.6-1.9-.6z"/>
</svg>
