<svg xmlns="http://www.w3.org/2000/svg" width="26" height="26" fill="none" viewBox="0 0 26 26">
    <circle cx="13" cy="13" r="21" fill="#DBDBDB"/>
    <path fill="#fff" fill-rule="evenodd" d="M17.063 5.42c-3.22-3.225-8.436-3.227-11.652-.004-3.217 3.222-3.214 8.447.005 11.673 2.91 2.916 7.454 3.197 10.676.84l3.874 4.534.008-.009.021.021c.691.696 1.808.7 2.494.01.685-.691.681-1.815-.01-2.512-.088-.088-.182-.164-.281-.23l-4.28-3.65c2.334-3.226 2.049-7.763-.855-10.673zM15.39 7.082c-2.301-2.3-6.027-2.3-8.326-.003-2.298 2.296-2.296 6.02.004 8.32 2.3 2.297 6.026 2.298 8.325.002 2.297-2.297 2.297-6.02-.003-8.319z" clip-rule="evenodd"/>
</svg>
